<?xml version="1.0" encoding="UTF-8" standalone="no"?>
<!-- Created with Inkscape (http://www.inkscape.org/) -->

<svg
   width="216.18915mm"
   height="202.397mm"
   viewBox="0 0 216.18915 202.397"
   version="1.1"
   id="svg1"
   xml:space="preserve"
   xmlns="http://www.w3.org/2000/svg"
   xmlns:svg="http://www.w3.org/2000/svg"><defs
     id="defs1" /><g
     id="layer1"
     transform="translate(-8.0837983,-43.576406)"><path
       style="fill:#000000;fill-opacity:1;stroke:#000000;stroke-opacity:1"
       d="m 91.498122,245.40271 c -1.018646,-0.0948 -2.566458,-0.44005 -3.439583,-0.76717 -1.749728,-0.65554 -3.836458,-2.01951 -3.836458,-2.50767 0,-0.24142 1.149045,-2.0406 1.755837,-2.7493 0.05115,-0.0597 0.303946,0.0823 0.561767,0.31561 0.257821,0.23332 1.26538,0.797 2.23902,1.25262 4.3847,2.05185 9.196319,0.92668 9.200719,-2.15153 0.0022,-1.57383 -1.368754,-2.52317 -5.687552,-3.93829 -4.24533,-1.39104 -5.794572,-2.36666 -6.758477,-4.25607 -0.682956,-1.33871 -0.690146,-3.94588 -0.0149,-5.40122 1.15796,-2.4957 3.607336,-3.85057 7.299176,-4.03752 3.235594,-0.16384 6.211926,0.62672 8.181049,2.17303 0.48863,0.38371 0.47352,0.44343 -0.47298,1.86896 l -0.977745,1.47259 -0.766312,-0.54566 c -1.950614,-1.38896 -6.064776,-1.86868 -8.029673,-0.93627 -1.765642,0.83785 -2.264521,2.68081 -1.100234,4.06448 0.658171,0.7822 1.583069,1.19951 6.32913,2.85574 3.855781,1.34555 5.522484,2.91948 5.847674,5.52219 0.52201,4.17802 -2.179515,7.29103 -6.733086,7.75865 -0.959911,0.0986 -2.57873,0.10165 -3.597376,0.007 z m -78.052306,-0.31554 c -2.898522,-0.94699 -4.5996967,-2.99589 -4.8230941,-5.80895 -0.198341,-2.49754 0.2583288,-3.78391 1.9169831,-5.39984 1.952184,-1.90191 4.126054,-2.5891 8.198004,-2.59153 1.600729,-9.6e-4 3.493188,0.0876 4.205465,0.19688 l 1.295048,0.19862 -0.162004,-1.73486 c -0.318971,-3.41578 -1.82557,-4.91357 -5.070985,-5.04132 -2.581274,-0.10162 -4.713849,0.47651 -6.784221,1.83917 l -0.695864,0.45799 -0.957782,-1.33316 c -0.52678,-0.73324 -0.9577815,-1.49673 -0.9577815,-1.69665 0,-0.54151 3.3711085,-2.21065 5.4539305,-2.70041 2.197617,-0.51675 5.958009,-0.38099 7.826705,0.28256 1.814441,0.64429 3.430913,2.19329 4.337256,4.15622 l 0.770649,1.66905 0.0878,8.7974 0.0878,8.79739 h -1.873741 -1.873741 v -1.32291 c 0,-0.72761 -0.07358,-1.32292 -0.163508,-1.32292 -0.08993,0 -0.56949,0.35646 -1.06569,0.79212 -1.799001,1.57955 -2.884347,1.95306 -5.914551,2.03545 -1.770443,0.0481 -3.162086,-0.0499 -3.836685,-0.2703 z m 7.40856,-3.81027 c 2.114646,-1.10019 3.383534,-3.06045 3.255078,-5.02867 l -0.08008,-1.22698 -1.322917,-0.35839 c -1.869142,-0.50638 -5.742752,-0.30532 -7.288145,0.37828 -1.762833,0.77979 -2.63373,1.93866 -2.63373,3.50463 0,1.45523 0.556127,2.33875 1.907258,3.03009 1.229295,0.62899 4.702827,0.46048 6.162534,-0.29896 z m 13.548336,3.73293 c -0.102783,-0.10278 -0.186879,-5.34625 -0.186879,-11.65215 V 221.8924 h 1.984375 1.984375 v 11.37708 c 0,6.2574 0.02977,11.46638 0.06615,11.57552 0.08503,0.25508 -3.599924,0.41293 -3.848017,0.16483 z m 10.661037,-10.64894 c 0,-5.94817 -0.07441,-11.18691 -0.165364,-11.64167 L 44.73302,221.8924 h 1.885156 1.885157 l 0.0013,1.38906 0.0013,1.38906 0.891978,-0.97111 c 2.08447,-2.26939 5.940727,-3.1895 9.288551,-2.21626 1.232641,0.35834 1.834861,0.74659 3.024212,1.9497 l 1.485078,1.50226 1.01814,-1.11967 c 1.484458,-1.63248 3.467852,-2.51651 5.971137,-2.66143 3.122883,-0.18078 4.795598,0.39601 6.651547,2.29358 2.40024,2.45408 2.436388,2.63664 2.560406,12.93075 l 0.105986,8.79739 h -1.98909 -1.989019 l -0.08316,-8.26823 c -0.07982,-7.93644 -0.106582,-8.31201 -0.66687,-9.35942 -1.166101,-2.17993 -2.781173,-2.96883 -5.434553,-2.65458 -1.698707,0.20119 -3.184211,1.21147 -4.118777,2.80116 l -0.710876,1.2092 -0.08026,8.13593 -0.08026,8.13594 h -1.97026 -1.970261 l -0.0015,-7.73906 c -9.09e-4,-4.76984 -0.112389,-8.14511 -0.290565,-8.7974 -0.416397,-1.52439 -1.456906,-2.76225 -2.833828,-3.37133 -2.234563,-0.98846 -5.532548,-0.17972 -6.920015,1.69693 -1.230977,1.66498 -1.331199,2.46086 -1.331199,10.57121 v 7.63965 h -1.984351 -1.984375 z m 80.168751,-5.45703 v -16.27188 l 6.54843,0.005 c 7.16353,0.005 9.06291,0.24441 11.42126,1.43948 1.92845,0.97722 3.23896,2.25369 4.1392,4.03168 0.73185,1.44541 0.77756,1.72238 0.77756,4.7107 0,2.74165 -0.0819,3.35269 -0.60037,4.47684 -0.90514,1.96271 -2.22369,3.40269 -3.96613,4.3314 -2.47536,1.31935 -4.33167,1.63446 -9.65485,1.63889 l -4.69635,0.004 v 5.95313 5.95312 h -1.98438 -1.98437 z m 14.25524,0.24965 c 1.51484,-0.44986 3.24622,-1.83201 3.93364,-3.14019 1.09708,-2.08777 0.84693,-5.03328 -0.58712,-6.91342 -1.45476,-1.90728 -3.71532,-2.49917 -9.545,-2.49917 h -4.08801 v 6.48229 6.4823 h 4.44989 c 3.25682,0 4.82169,-0.11041 5.8366,-0.41181 z m 9.02664,15.83448 c -8e-4,-0.11502 0.65108,-1.87601 1.44861,-3.9133 7.03624,-17.97411 10.68458,-27.34757 10.84251,-27.85705 0.17965,-0.57955 0.2879,-0.60178 2.57671,-0.52916 l 2.38919,0.0758 6.03861,15.4927 c 3.32123,8.521 6.1204,15.81862 6.22037,16.21694 l 0.18177,0.72423 -2.16981,-0.0773 -2.16982,-0.0774 -1.40285,-3.70417 c -0.77158,-2.03729 -1.47247,-3.91252 -1.55755,-4.16718 -0.14238,-0.42619 -0.73944,-0.46293 -7.50518,-0.4619 l -7.35049,0.001 -1.59017,4.16606 -1.59017,4.16606 -2.18014,0.0769 c -1.19908,0.0423 -2.18079,-0.0173 -2.18159,-0.1323 z m 18.20257,-18.9284 c -1.4545,-3.81992 -2.7905,-7.35411 -2.96889,-7.85375 -0.35474,-0.9936 -0.44833,-0.92977 -0.94407,0.64385 -0.18337,0.58208 -0.72546,2.07037 -1.20465,3.30729 -1.97932,5.1093 -4.08768,10.65233 -4.08768,10.74684 0,0.0556 2.66621,0.10108 5.92492,0.10108 h 5.92491 z m 13.38166,18.71486 c 0.16611,-0.43287 1.04807,-1.72409 7.36624,-10.7844 2.00689,-2.8779 3.64889,-5.30745 3.64889,-5.39898 0,-0.0915 -0.27884,-0.53486 -0.61964,-0.98515 -0.3408,-0.4503 -2.62033,-3.79529 -5.06561,-7.43331 -2.44528,-3.63802 -4.62983,-6.82753 -4.85454,-7.08779 -0.38924,-0.45082 -0.28441,-0.4696 2.21562,-0.39688 l 2.6242,0.0763 3.92663,5.82083 c 2.15965,3.20146 4.03737,5.99943 4.17271,6.21771 0.29961,0.48321 -0.19249,1.11476 4.84515,-6.21824 2.16548,-3.15216 4.08043,-5.78614 4.25545,-5.85331 0.17502,-0.0672 1.29272,-0.0872 2.48377,-0.0446 l 2.16555,0.0776 -5.16766,7.40833 c -2.84221,4.07458 -5.2973,7.66089 -5.45575,7.96957 -0.25442,0.49563 0.36452,1.50719 5.2951,8.65389 3.07075,4.45096 5.58319,8.1617 5.58319,8.24609 0,0.0844 -1.10048,0.1192 -2.44551,0.0773 l -2.4455,-0.0761 -4.36752,-6.53652 c -2.40213,-3.59508 -4.4495,-6.51211 -4.5497,-6.48229 -0.10021,0.0298 -2.13777,2.97126 -4.52791,6.53652 l -4.34571,6.48229 -2.44969,0.0765 c -2.15223,0.0672 -2.43003,0.0253 -2.28776,-0.34549 z m -73.91611,-12.5633 v -1.85208 h 6.35 6.35 v 1.85208 1.85208 h -6.35 -6.35 z M 34.057083,216.4949 c -1.251591,-1.25159 -1.251591,-2.50549 0,-3.75708 0.766596,-0.7666 1.082517,-0.89959 2.137019,-0.89959 1.014915,0 1.376512,0.13908 2.010834,0.7734 1.333311,1.33331 0.960629,3.62242 -0.730563,4.4873 -1.158903,0.59267 -2.448542,0.36472 -3.41729,-0.60403 z m 16.130634,-15.83531 c -3.062718,-2.28003 -5.697431,-7.29281 -6.453019,-12.27745 -0.788404,-5.20113 1.094231,-10.75852 5.028027,-14.84234 l 1.08317,-1.12448 h -3.209407 c -6.646825,0 -12.887373,-2.01775 -17.883068,-5.78212 -4.164928,-3.13837 -8.14316,-8.02437 -9.915654,-12.17826 -1.658081,-3.88575 -0.680707,-4.63157 4.544348,-3.46771 9.014944,2.00805 16.53538,2.77724 25.065275,2.56368 11.080422,-0.27741 19.475588,-2.32621 26.101835,-6.37003 0.864565,-0.52762 1.673648,-0.95931 1.797964,-0.95931 0.380977,0 1.524893,1.27419 1.524893,1.69856 0,0.91785 -1.691599,2.28579 -4.588333,3.71044 -5.185095,2.5501 -11.888637,4.38843 -18.959582,5.19935 -3.503256,0.40176 -13.013079,0.39701 -16.66875,-0.008 -4.391368,-0.48691 -12.180713,-1.85596 -14.485936,-2.54603 -0.862987,-0.25834 -0.75287,0.10343 0.716715,2.35461 2.708095,4.14838 7.142454,7.99855 11.474428,9.96276 5.682273,2.57647 13.363843,3.30792 19.443324,1.85143 2.715558,-0.65057 3.289262,-0.65701 3.844836,-0.0431 0.94218,1.04109 0.403434,2.16932 -1.489847,3.11999 -6.596138,3.3121 -10.598407,9.40743 -10.15093,15.45954 0.26584,3.59547 2.156633,8.11251 4.151528,9.91787 0.56645,0.51263 0.571947,0.51192 1.107937,-0.14397 0.296265,-0.36254 1.970691,-2.68323 3.720948,-5.15708 1.750257,-2.47385 4.29494,-6.06902 5.654852,-7.98925 6.220602,-8.78366 10.285852,-12.88487 15.379635,-15.51571 4.633403,-2.39306 8.275263,-2.87928 16.459591,-2.19751 9.477123,0.78946 14.446613,0.69589 20.004983,-0.37666 12.70997,-2.45253 21.8275,-9.2488 27.56698,-20.5486 2.55817,-5.03649 3.97746,-10.08936 5.59387,-19.91498 1.38531,-8.42085 2.54835,-12.46591 4.76669,-16.57857 3.20323,-5.93858 7.55812,-9.316593 13.58992,-10.541459 0.41052,-0.08336 0.70817,-0.236639 0.66145,-0.340613 -0.25514,-0.56784 -9.16703,-8.880884 -10.39301,-9.694646 -2.45801,-1.631533 -4.64985,-2.32336 -7.81919,-2.468036 -4.93576,-0.22531 -8.52769,1.173131 -12.3804,4.820045 -2.50002,2.366481 -4.03684,4.313722 -7.83897,9.932449 -5.28335,7.80764 -7.72277,10.61678 -10.16535,11.70603 -3.50717,1.56399 -5.92416,-1.22711 -10.48063,-12.102907 -3.03848,-7.252837 -5.25648,-10.82968 -9.04109,-14.580355 C 96.332128,84.002445 94.170859,82.24008 92.74493,81.290801 88.170966,78.245789 84.800231,76.890363 71.918956,72.916343 56.066452,68.025664 43.407571,61.111296 32.5491,51.412257 c -1.204629,-1.076003 -2.159801,-1.744083 -2.294703,-1.604995 -0.306653,0.316168 0.119382,7.268572 0.649019,10.591256 1.503009,9.429129 5.074776,16.516832 11.343584,22.509851 5.136457,4.910485 11.517583,8.20948 18.29863,9.460257 4.104934,0.757163 3.954071,0.689225 4.048212,1.82303 0.115624,1.392543 -0.28147,1.759467 -1.901553,1.75708 -3.461006,-0.0051 -9.253152,-1.701997 -13.65979,-4.001846 C 36.743499,85.533193 29.363324,74.523945 27.239954,59.438237 26.301579,52.771455 26.497876,45.92835 27.663068,44.68806 c 1.066466,-1.1352 1.778604,-0.833984 4.8451,2.049356 6.826543,6.418807 14.634256,11.908164 22.609748,15.896199 6.867799,3.43415 8.710487,4.116299 26.362743,9.759288 11.287122,3.608212 17.940686,8.17658 23.116621,15.871976 1.39947,2.080682 3.82264,6.934005 5.15842,10.331689 2.42995,6.180842 4.76625,10.054162 6.06443,10.054162 1.20873,0 3.91186,-3.31041 9.61406,-11.773954 3.88468,-5.765864 5.82161,-8.088619 8.59628,-10.308635 2.61803,-2.09468 5.21636,-3.420734 8.12717,-4.147685 3.18372,-0.795108 7.73916,-0.60985 10.5683,0.429786 3.64513,1.339489 5.32792,2.570985 10.85567,7.944371 2.84616,2.766684 5.91898,5.66573 6.82849,6.442324 1.42127,1.213574 1.65364,1.537131 1.65364,2.302543 0,1.21897 -0.50594,1.42273 -3.5124,1.41451 -7.61835,-0.0208 -13.63593,5.32397 -16.42641,14.58984 -0.8975,2.98018 -1.37228,5.12114 -2.16122,9.74577 -1.74764,10.24428 -2.80931,14.26801 -5.20317,19.71999 -4.38284,9.98183 -12.54154,17.71342 -22.9101,21.71074 -7.25962,2.79875 -15.89361,3.62719 -27.350832,2.62431 -5.478873,-0.47957 -9.874325,-0.38044 -12.261902,0.27654 -6.491875,1.78634 -11.601807,6.74056 -21.029742,20.38893 -4.834623,6.99885 -7.140503,10.14185 -7.850156,10.70007 -0.905099,0.71195 -2.172965,0.69171 -3.170091,-0.0506 z m 30.859364,-57.0826 c -7.510976,-0.86726 -14.822582,-3.4924 -19.923729,-7.15336 -2.575857,-1.84862 -6.403774,-5.70498 -7.471641,-7.52716 -0.621967,-1.06131 -0.65475,-1.24737 -0.337107,-1.91329 0.275132,-0.57679 0.562031,-0.75521 1.315633,-0.81819 0.896407,-0.0749 1.046408,0.0268 2.14602,1.45521 5.537031,7.19262 14.538915,11.64528 25.385943,12.5568 5.083501,0.42719 11.059431,-0.1417 16.043001,-1.52726 1.915139,-0.53245 2.778279,-0.29296 3.065279,0.85053 0.27608,1.09999 -0.53645,1.99629 -2.295115,2.5317 -4.157427,1.26571 -13.428131,2.06463 -17.928284,1.54502 z m 132.273769,-3.3851 c -2.01609,-1.2956 -2.72053,-3.56376 -1.9528,-6.28762 0.12315,-0.43694 -0.25182,-0.87402 -1.91464,-2.23176 -1.13729,-0.92863 -2.60837,-2.14022 -3.26907,-2.69243 l -1.20128,-1.00401 -4.48726,1.81267 c -2.468,0.99696 -6.13947,2.49194 -8.15883,3.32218 -2.24496,0.92298 -3.88985,1.45442 -4.23334,1.36772 -0.5997,-0.15136 -14.69867,-11.83806 -15.05955,-12.48293 -0.11791,-0.21068 -0.0935,-1.24566 0.0542,-2.29995 1.37443,-9.80884 2.23805,-15.02187 2.61815,-15.80381 0.36948,-0.7601 0.79735,-1.07017 2.43271,-1.76293 1.09141,-0.46234 4.71994,-2.02299 8.06341,-3.468113 l 6.07904,-2.627495 0.85412,-3.547068 c 0.46976,-1.950887 0.85958,-3.770762 0.86627,-4.044166 0.007,-0.273405 -0.39815,-0.951266 -0.89965,-1.506359 -2.15385,-2.384059 -1.81431,-5.815693 0.75135,-7.593697 0.89707,-0.621675 1.3037,-0.721595 2.93656,-0.721595 1.65957,0 2.01385,0.09042 2.84844,0.726998 2.19422,1.673614 2.89171,4.128105 1.80877,6.365162 -0.61279,1.26585 -2.13305,2.470809 -3.44955,2.734108 -0.7007,0.140141 -0.81276,0.326457 -1.30809,2.174959 -0.90425,3.374501 -1.45875,5.841316 -1.3364,5.945263 0.0638,0.05417 1.78281,1.449788 3.8201,3.101368 2.0373,1.651585 4.95918,4.041865 6.49308,5.311755 l 2.78892,2.30888 2.66307,-0.81592 c 2.55762,-0.78362 2.67648,-0.85357 3.00169,-1.76654 0.88328,-2.47965 2.55376,-3.58235 5.17416,-3.41549 2.83079,0.18025 4.45226,2.00477 4.46845,5.02804 0.0148,2.7654 -2.01003,4.71287 -4.90011,4.71287 -1.19956,0 -1.70519,-0.14743 -2.62557,-0.76556 -0.62695,-0.42106 -1.26994,-1.0004 -1.42888,-1.28741 -0.28209,-0.50942 -0.35798,-0.49906 -3.18681,0.43484 l -2.89784,0.95668 -1.00044,7.01146 c -0.55024,3.8563 -0.97262,7.26023 -0.93862,7.56429 0.0384,0.34325 1.38123,1.66808 3.5421,3.49456 3.40737,2.8801 3.49882,2.93628 4.36562,2.68187 2.99091,-0.87784 6.12032,1.64116 6.12032,4.92652 0,1.65007 -0.56319,2.75041 -2.00366,3.91467 -0.82702,0.66844 -1.28913,0.82689 -2.64584,0.90725 -1.45733,0.0863 -1.7809,0.009 -2.85232,-0.67926 z m 3.86638,-2.82183 c 1.25935,-1.25936 0.42771,-3.31932 -1.34006,-3.31932 -1.86136,0 -2.49543,2.43834 -0.94386,3.6296 0.67044,0.51475 1.58284,0.39079 2.28392,-0.31028 z m -21.0464,-9.1311 c 4.00182,-1.5951 7.35673,-3.05335 7.45535,-3.24056 0.0986,-0.1872 0.6095,-3.55506 1.13529,-7.48412 0.52579,-3.92906 1.0163,-7.45387 1.09003,-7.8329 0.11986,-0.61613 -0.19668,-0.95651 -2.98737,-3.21236 -1.71679,-1.38777 -4.51519,-3.6663 -6.21867,-5.06341 -2.91443,-2.390255 -3.14088,-2.523733 -3.83646,-2.261365 -0.40657,0.153354 -3.85497,1.655515 -7.66311,3.338135 l -6.92389,3.05931 -0.30607,1.75296 c -0.2595,1.48628 -1.73708,11.33056 -1.92461,12.8226 -0.0432,0.34339 1.76616,2.02925 6.15659,5.73647 3.41974,2.88758 6.33677,5.25809 6.48229,5.26779 0.14552,0.01 3.5388,-1.28745 7.54063,-2.88255 z m -7.14621,0.11677 c -0.17025,-0.44777 -0.1906,-1.00187 -0.0521,-1.41744 0.19606,-0.58819 1.00869,-1.00416 5.89153,-3.01575 5.94012,-2.44716 6.71274,-2.60115 7.01469,-1.39807 0.27742,1.10535 0.0126,1.58722 -1.21107,2.20361 -2.05458,1.03494 -9.61674,4.07174 -10.50992,4.22056 -0.74874,0.12475 -0.88802,0.0519 -1.13316,-0.59291 z m -10.43679,-8.41886 c -0.53833,-0.39364 -0.56813,-0.0339 0.7009,-8.46418 0.48115,-3.19642 0.62276,-3.69304 1.11727,-3.91835 0.37746,-0.17198 0.8176,-0.16247 1.31996,0.0285 l 0.75368,0.28655 -0.18838,1.91201 c -0.35081,3.56053 -1.40761,9.72461 -1.73484,10.1189 -0.40534,0.4884 -1.32723,0.50551 -1.96859,0.0365 z m 22.21635,-8.43217 c -0.64135,-0.3718 -8.59994,-7.10536 -9.07081,-7.67458 -0.40464,-0.48916 -0.0293,-1.72098 0.59762,-1.96157 0.83943,-0.32212 1.73989,0.25812 6.03302,3.88762 3.80988,3.22094 4.4214,3.84221 4.4214,4.49187 0,0.47916 -0.21431,0.90405 -0.58804,1.16582 -0.692,0.48469 -0.7116,0.48597 -1.39319,0.0908 z m 19.035,-3.54749 c 0.47957,-0.18402 1.20248,-1.43658 1.20248,-2.08349 0,-0.67714 -1.22605,-1.7209 -2.02144,-1.7209 -1.02727,0 -1.94731,0.95447 -1.94731,2.02019 0,1.43626 1.37011,2.31996 2.76627,1.7842 z M 198.32364,84.797642 c 1.14058,-1.34794 -0.0572,-3.619896 -1.73733,-3.295466 -1.84227,0.355729 -2.35652,2.264982 -0.93276,3.463 0.95529,0.803824 1.89822,0.744661 2.67009,-0.167534 z M 70.478047,123.95748 c -2.98581,-0.31181 -7.815338,-1.41385 -10.44503,-2.38344 -10.340748,-3.8127 -19.324641,-12.31473 -23.707794,-22.436171 -1.951448,-4.506225 -3.337952,-9.482684 -3.031162,-10.879488 0.284586,-1.295713 2.154236,-1.675725 2.745132,-0.557956 0.129414,0.244806 0.54464,1.611439 0.922724,3.036962 3.614911,13.629603 12.810655,23.823143 25.210228,27.945673 3.113151,1.03505 5.635865,1.54215 9.576374,1.92498 2.918406,0.28354 3.31123,0.38185 3.661405,0.91628 0.554084,0.84564 0.223744,2.16646 -0.622283,2.48812 -0.736516,0.28002 -1.152659,0.27471 -4.309594,-0.055 z M 149.72997,96.988768 c -1.13355,-1.347151 -0.85174,-3.045812 0.63265,-3.81342 1.0658,-0.551148 1.92262,-0.500281 2.76749,0.164299 2.10497,1.655767 0.97306,4.463171 -1.7995,4.463171 -0.69766,0 -1.07874,-0.193805 -1.60064,-0.81405 z"
       id="path1" /></g></svg>
